<svg xmlns="http://www.w3.org/2000/svg" xmlns:xlink="http://www.w3.org/1999/xlink" x="0px" y="0px"
	 viewBox="0 0 115.3 44" style="enable-background:new 0 0 115.3 44;" xml:space="preserve">
<style type="text/css">
	.logo-clr{fill:#413F4B;}
</style>
<g>
	<path class="logo-clr" d="M14.4,43.6V0.4h1.8v43.1H14.4z M1.1,43.6V30.1h7.7v13.5H1.1z"/>
</g>
<path class="logo-clr" d="M31.7,13.7v-1.3l4.8,0v4.2c-0.7,0.6-1.5,1-2.3,1.3c-0.8,0.3-1.6,0.4-2.4,0.4c-1.1,0-2.1-0.2-3-0.7
	c-0.9-0.5-1.6-1.2-2-2c-0.5-0.9-0.7-1.9-0.7-3c0-1.1,0.2-2.1,0.7-3.1c0.5-0.9,1.1-1.7,2-2.1c0.9-0.5,1.8-0.7,3-0.7
	c0.8,0,1.5,0.1,2.2,0.4c0.7,0.3,1.2,0.6,1.5,1.1c0.4,0.5,0.7,1.1,0.9,1.8L35,10.4c-0.2-0.6-0.4-1-0.6-1.3c-0.3-0.3-0.6-0.6-1.1-0.8
	c-0.5-0.2-1-0.3-1.5-0.3c-0.7,0-1.3,0.1-1.8,0.3c-0.5,0.2-0.9,0.5-1.2,0.8c-0.3,0.3-0.5,0.7-0.7,1.1c-0.3,0.7-0.4,1.4-0.4,2.3
	c0,1,0.2,1.8,0.5,2.5c0.3,0.7,0.8,1.2,1.5,1.5c0.7,0.3,1.4,0.5,2.1,0.5c0.6,0,1.3-0.1,1.9-0.4c0.6-0.2,1.1-0.5,1.4-0.8v-2.1H31.7z"
	/>
<path class="logo-clr" d="M39.8,14.5l1.4-0.1c0.1,0.6,0.2,1,0.5,1.4c0.2,0.4,0.6,0.7,1.1,0.9c0.5,0.2,1.1,0.3,1.7,0.3
	c0.6,0,1.1-0.1,1.5-0.3c0.4-0.2,0.8-0.4,1-0.7c0.2-0.3,0.3-0.6,0.3-1c0-0.4-0.1-0.7-0.3-0.9c-0.2-0.3-0.5-0.5-1-0.7
	c-0.3-0.1-1-0.3-2-0.5c-1-0.2-1.8-0.5-2.2-0.7c-0.5-0.3-0.9-0.6-1.2-1c-0.3-0.4-0.4-0.9-0.4-1.4c0-0.6,0.2-1.1,0.5-1.6
	C41,7.7,41.5,7.3,42.1,7c0.6-0.3,1.3-0.4,2.1-0.4c0.8,0,1.6,0.1,2.2,0.4s1.1,0.7,1.5,1.2c0.3,0.5,0.5,1.1,0.6,1.8L47,10.1
	c-0.1-0.7-0.3-1.2-0.8-1.6c-0.4-0.4-1.1-0.5-2-0.5c-0.9,0-1.6,0.2-2,0.5c-0.4,0.3-0.6,0.7-0.6,1.2c0,0.4,0.1,0.7,0.4,1
	c0.3,0.3,1,0.5,2.2,0.8c1.2,0.3,2,0.5,2.5,0.7c0.7,0.3,1.1,0.7,1.4,1.1c0.3,0.5,0.5,1,0.5,1.6c0,0.6-0.2,1.2-0.5,1.7
	c-0.3,0.5-0.8,0.9-1.5,1.2c-0.6,0.3-1.4,0.4-2.2,0.4c-1,0-1.9-0.1-2.6-0.4c-0.7-0.3-1.2-0.7-1.6-1.3C40,15.9,39.8,15.2,39.8,14.5z"
	/>
<path class="logo-clr" d="M60.9,16.9c0.7,0.5,1.3,0.8,1.9,1l-0.4,1c-0.8-0.3-1.6-0.8-2.4-1.4c-0.8,0.5-1.8,0.7-2.8,0.7
	c-1,0-1.9-0.2-2.8-0.7s-1.5-1.2-1.9-2.1c-0.4-0.9-0.7-1.9-0.7-3c0-1.1,0.2-2.1,0.7-3c0.4-0.9,1.1-1.6,1.9-2.1
	c0.8-0.5,1.8-0.7,2.8-0.7c1,0,2,0.2,2.8,0.7c0.8,0.5,1.5,1.2,1.9,2.1s0.7,1.9,0.7,3c0,0.9-0.1,1.8-0.4,2.5
	C61.9,15.7,61.4,16.3,60.9,16.9z M57.6,15c0.9,0.2,1.6,0.6,2.1,1.1c0.9-0.8,1.3-2,1.3-3.6c0-0.9-0.2-1.7-0.5-2.4
	c-0.3-0.7-0.8-1.2-1.4-1.6c-0.6-0.4-1.3-0.6-2-0.6c-1.1,0-2,0.4-2.8,1.1c-0.7,0.8-1.1,1.9-1.1,3.4c0,1.5,0.4,2.6,1.1,3.4
	c0.7,0.8,1.6,1.2,2.8,1.2c0.5,0,1-0.1,1.5-0.3c-0.5-0.3-1-0.5-1.5-0.6L57.6,15z"/>
<path class="logo-clr" d="M73.5,6.8H75v6.5c0,1.1-0.1,2-0.4,2.7c-0.3,0.7-0.7,1.2-1.4,1.6c-0.7,0.4-1.5,0.6-2.6,0.6
	c-1.1,0-1.9-0.2-2.6-0.5c-0.7-0.4-1.1-0.9-1.4-1.6c-0.3-0.7-0.4-1.6-0.4-2.8V6.8h1.5v6.5c0,1,0.1,1.7,0.3,2.2
	c0.2,0.5,0.5,0.8,0.9,1.1c0.4,0.2,1,0.4,1.6,0.4c1.1,0,1.9-0.2,2.3-0.7c0.5-0.5,0.7-1.4,0.7-2.9V6.8z"/>
<path class="logo-clr" d="M77.9,18.1l4.3-11.2h1.6l4.6,11.2h-1.7l-1.3-3.4h-4.7l-1.2,3.4H77.9z M81.1,13.5h3.8l-1.2-3.1
	c-0.4-0.9-0.6-1.7-0.8-2.3c-0.1,0.7-0.3,1.4-0.6,2.1L81.1,13.5z"/>
<path class="logo-clr" d="M91.2,18.1V6.8h5c1,0,1.8,0.1,2.3,0.3c0.5,0.2,0.9,0.6,1.2,1.1c0.3,0.5,0.5,1.1,0.5,1.7c0,0.8-0.3,1.5-0.8,2
	s-1.3,0.9-2.4,1c0.4,0.2,0.7,0.4,0.9,0.6c0.4,0.4,0.8,0.9,1.2,1.5l2,3.1h-1.9l-1.5-2.3c-0.4-0.7-0.8-1.2-1.1-1.5
	c-0.3-0.4-0.5-0.6-0.8-0.8c-0.2-0.1-0.4-0.2-0.7-0.3c-0.2,0-0.4-0.1-0.8-0.1h-1.7v5H91.2z M92.7,11.8h3.2c0.7,0,1.2-0.1,1.6-0.2
	c0.4-0.1,0.7-0.4,0.9-0.7c0.2-0.3,0.3-0.6,0.3-1c0-0.5-0.2-1-0.6-1.3c-0.4-0.3-1-0.5-1.8-0.5h-3.6V11.8z"/>
<path class="logo-clr" d="M104.1,18.1V6.8h8.1v1.3h-6.6v3.4h6.2v1.3h-6.2v3.8h6.9v1.3H104.1z"/>
<path class="logo-clr" d="M26.4,33.8V22.5h4.2c0.9,0,1.5,0.1,2.1,0.3c0.5,0.2,0.9,0.6,1.2,1c0.3,0.5,0.4,1,0.4,1.5c0,0.5-0.1,0.9-0.4,1.4
	s-0.7,0.8-1.2,1c0.7,0.2,1.2,0.5,1.6,1c0.4,0.5,0.5,1,0.5,1.7c0,0.5-0.1,1-0.3,1.5c-0.2,0.5-0.5,0.8-0.8,1c-0.3,0.2-0.7,0.4-1.2,0.6
	c-0.5,0.1-1.1,0.2-1.8,0.2H26.4z M27.9,27.3h2.4c0.7,0,1.1,0,1.4-0.1c0.4-0.1,0.7-0.3,0.9-0.6c0.2-0.3,0.3-0.6,0.3-1
	c0-0.4-0.1-0.7-0.3-1c-0.2-0.3-0.4-0.5-0.8-0.6c-0.3-0.1-0.9-0.2-1.7-0.2h-2.2V27.3z M27.9,32.4h2.8c0.5,0,0.8,0,1-0.1
	c0.3-0.1,0.6-0.2,0.9-0.3c0.2-0.1,0.4-0.4,0.6-0.6c0.1-0.3,0.2-0.6,0.2-0.9c0-0.4-0.1-0.8-0.3-1.1c-0.2-0.3-0.5-0.5-0.9-0.7
	c-0.4-0.1-0.9-0.2-1.6-0.2h-2.6V32.4z"/>
<path class="logo-clr" d="M45.9,22.5h1.5V29c0,1.1-0.1,2-0.4,2.7c-0.3,0.7-0.7,1.2-1.4,1.6C45,33.7,44.1,34,43,34c-1.1,0-1.9-0.2-2.6-0.5
	c-0.7-0.4-1.1-0.9-1.4-1.6c-0.3-0.7-0.4-1.6-0.4-2.8v-6.5h1.5V29c0,1,0.1,1.7,0.3,2.2c0.2,0.5,0.5,0.8,0.9,1.1
	c0.4,0.2,1,0.4,1.6,0.4c1.1,0,1.9-0.2,2.3-0.7c0.5-0.5,0.7-1.4,0.7-2.9V22.5z"/>
<path class="logo-clr" d="M51.7,33.8V22.5h1.5v11.2H51.7z"/>
<path class="logo-clr" d="M57.4,33.8V22.5h1.5v9.9h5.5v1.3H57.4z"/>
<path class="logo-clr" d="M67.8,33.8V22.5h3.9c0.9,0,1.5,0.1,2,0.2c0.6,0.1,1.2,0.4,1.6,0.8c0.6,0.5,1,1.1,1.3,1.9
	c0.3,0.8,0.4,1.7,0.4,2.7c0,0.9-0.1,1.6-0.3,2.3C76.6,31,76.3,31.6,76,32c-0.3,0.4-0.7,0.8-1,1c-0.4,0.2-0.8,0.4-1.3,0.6
	c-0.5,0.1-1.1,0.2-1.8,0.2H67.8z M69.3,32.4h2.4c0.7,0,1.3-0.1,1.7-0.2c0.4-0.1,0.8-0.3,1-0.6c0.4-0.4,0.6-0.8,0.8-1.4
	c0.2-0.6,0.3-1.3,0.3-2.2c0-1.2-0.2-2.1-0.6-2.7c-0.4-0.6-0.9-1.1-1.4-1.3c-0.4-0.2-1-0.2-1.9-0.2h-2.4V32.4z"/>
<path class="logo-clr" d="M80.7,33.8V22.5h8.1v1.3h-6.6v3.4h6.2v1.3h-6.2v3.8h6.9v1.3H80.7z"/>
<path class="logo-clr" d="M92.8,33.8V22.5h5c1,0,1.8,0.1,2.3,0.3c0.5,0.2,0.9,0.6,1.2,1.1c0.3,0.5,0.5,1.1,0.5,1.7c0,0.8-0.3,1.5-0.8,2
	c-0.5,0.5-1.3,0.9-2.4,1c0.4,0.2,0.7,0.4,0.9,0.6c0.4,0.4,0.8,0.9,1.2,1.5l2,3.1h-1.9l-1.5-2.3c-0.4-0.7-0.8-1.2-1.1-1.5
	c-0.3-0.4-0.5-0.6-0.8-0.8c-0.2-0.1-0.4-0.2-0.7-0.3c-0.2,0-0.4-0.1-0.8-0.1h-1.7v5H92.8z M94.3,27.5h3.2c0.7,0,1.2-0.1,1.6-0.2
	c0.4-0.1,0.7-0.4,0.9-0.7c0.2-0.3,0.3-0.6,0.3-1c0-0.5-0.2-1-0.6-1.3c-0.4-0.3-1-0.5-1.8-0.5h-3.6V27.5z"/>
<path class="logo-clr" d="M105.2,30.2l1.4-0.1c0.1,0.6,0.2,1,0.5,1.4c0.2,0.4,0.6,0.7,1.1,0.9c0.5,0.2,1.1,0.3,1.7,0.3
	c0.6,0,1.1-0.1,1.5-0.3c0.4-0.2,0.8-0.4,1-0.7s0.3-0.6,0.3-1c0-0.4-0.1-0.7-0.3-0.9c-0.2-0.3-0.5-0.5-1-0.7c-0.3-0.1-1-0.3-2-0.5
	c-1-0.2-1.8-0.5-2.2-0.7c-0.5-0.3-0.9-0.6-1.2-1s-0.4-0.9-0.4-1.4c0-0.6,0.2-1.1,0.5-1.6c0.3-0.5,0.8-0.9,1.4-1.1
	c0.6-0.3,1.3-0.4,2.1-0.4c0.8,0,1.6,0.1,2.2,0.4c0.6,0.3,1.1,0.7,1.5,1.2c0.3,0.5,0.5,1.1,0.6,1.8l-1.4,0.1
	c-0.1-0.7-0.3-1.2-0.8-1.6s-1.1-0.5-2-0.5c-0.9,0-1.6,0.2-2,0.5c-0.4,0.3-0.6,0.7-0.6,1.2c0,0.4,0.1,0.7,0.4,1
	c0.3,0.3,1,0.5,2.2,0.8c1.2,0.3,2,0.5,2.5,0.7c0.7,0.3,1.1,0.7,1.4,1.1c0.3,0.5,0.5,1,0.5,1.6c0,0.6-0.2,1.2-0.5,1.7
	c-0.3,0.5-0.8,0.9-1.5,1.2S110.8,34,110,34c-1,0-1.9-0.1-2.6-0.4c-0.7-0.3-1.2-0.7-1.6-1.3C105.4,31.6,105.2,30.9,105.2,30.2z"/>
</svg>
